/* XPM */
static char * bottom_right_active_xpm[] = {
"6 7 9 1",
" 	c None",
".	c #B00A0A",
"+	c #959595",
"@	c #7A7B7A",
"#	c #8B8B8B",
"$	c #7B7B7B",
"%	c #818181",
"&	c #797979",
"*	c #737373",
".....+",
".....+",
".....@",
"....+ ",
"...#$ ",
"+%&*  ",
"@@    "};
