/* XPM */
static char * bottom_left_inactive_xpm[] = {
"6 7 17 1",
" 	c None",
".	c #959595",
"+	c #AEAEAE",
"@	c #B0B0B0",
"#	c #B1B1B1",
"$	c #ACACAC",
"%	c #AFAFAF",
"&	c #7A7B7A",
"*	c #A9A9A9",
"=	c #ABABAB",
"-	c #7B7B7B",
";	c #8B8B8B",
">	c #ADADAD",
",	c #BABABA",
"'	c #737373",
")	c #797979",
"!	c #818181",
".+@@@#",
".$%@@#",
"&*+@@#",
" .=%@#",
" -;*>,",
"  ')!.",
"    &&"};
