/* XPM */
static char * bottom_active_xpm[] = {
"3 7 3 1",
" 	c None",
".	c #B00A0A",
"+	c #8E0000",
"...",
"...",
"...",
"...",
"...",
"...",
"+++"};
