/* XPM */
static char * bottom_inactive_xpm[] = {
"3 7 5 1",
" 	c None",
".	c #B1B1B1",
"+	c #A6A6A6",
"@	c #808081",
"#	c #808180",
"...",
"...",
"...",
"...",
"...",
"+++",
"@@#"};
