/* XPM */
static char * bottom_left_active_xpm[] = {
"6 7 9 1",
" 	c None",
".	c #959595",
"+	c #B00A0A",
"@	c #7A7B7A",
"#	c #7B7B7B",
"$	c #8B8B8B",
"%	c #737373",
"&	c #797979",
"*	c #818181",
".+++++",
".+++++",
"@+++++",
" .++++",
" #$+++",
"  %&*.",
"    @@"};
