/* XPM */
static char * bottom_right_inactive_xpm[] = {
"6 7 17 1",
" 	c None",
".	c #B1B1B1",
"+	c #B0B0B0",
"@	c #AEAEAE",
"#	c #959595",
"$	c #AFAFAF",
"%	c #ACACAC",
"&	c #A9A9A9",
"*	c #7A7B7A",
"=	c #ABABAB",
"-	c #BABABA",
";	c #ADADAD",
">	c #8B8B8B",
",	c #7B7B7B",
"'	c #818181",
")	c #797979",
"!	c #737373",
".+++@#",
".++$%#",
".++@&*",
".+$=# ",
"-;&>, ",
"#')!  ",
"**    "};
