/* XPM */
static char * close_active_xpm[] = {
"21 21 128 2",
"  	c None",
". 	c #E8E8E8",
"+ 	c #ECECEC",
"@ 	c #B00A0A",
"# 	c #582D33",
"$ 	c #4E1416",
"% 	c #582C33",
"& 	c #4D1113",
"* 	c #551012",
"= 	c #682223",
"- 	c #7B3A3B",
"; 	c #7A393A",
"> 	c #682123",
", 	c #540F12",
"' 	c #4C080A",
") 	c #6B1416",
"! 	c #9C3335",
"~ 	c #CC7F81",
"{ 	c #F3DCDC",
"] 	c #F3D9DA",
"^ 	c #CB7B7C",
"/ 	c #9B3134",
"( 	c #6B1415",
"_ 	c #511316",
": 	c #751416",
"< 	c #AF2224",
"[ 	c #CC3336",
"} 	c #DF6668",
"| 	c #F1B5B6",
"1 	c #F0B3B3",
"2 	c #DE6364",
"3 	c #CB3234",
"4 	c #AE2123",
"5 	c #621013",
"6 	c #B62023",
"7 	c #D12224",
"8 	c #DF2628",
"9 	c #E83A3C",
"0 	c #EF6666",
"a 	c #EF6465",
"b 	c #E8393A",
"c 	c #DF2627",
"d 	c #961D1F",
"e 	c #D22325",
"f 	c #E52426",
"g 	c #EF2627",
"h 	c #F4292A",
"i 	c #F63132",
"j 	c #E52526",
"k 	c #B52426",
"l 	c #E32B2C",
"m 	c #F22E2F",
"n 	c #F83233",
"o 	c #FB3737",
"p 	c #FB3A3B",
"q 	c #FB3B3B",
"r 	c #FB3838",
"s 	c #F83434",
"t 	c #F23030",
"u 	c #E42C2D",
"v 	c #B52527",
"w 	c #C12C2E",
"x 	c #EF3839",
"y 	c #F93F40",
"z 	c #FC4848",
"A 	c #FD5353",
"B 	c #FD5C5C",
"C 	c #FD5D5D",
"D 	c #FD5555",
"E 	c #FC4B4B",
"F 	c #F94242",
"G 	c #EF3A3B",
"H 	c #C12E30",
"I 	c #C13536",
"J 	c #F44849",
"K 	c #FB5354",
"L 	c #FD6262",
"M 	c #FD7272",
"N 	c #FD7F7F",
"O 	c #FE8080",
"P 	c #FD7575",
"Q 	c #FD6565",
"R 	c #FB5757",
"S 	c #F44B4B",
"T 	c #C13839",
"U 	c #B0393A",
"V 	c #F25959",
"W 	c #FC6868",
"X 	c #FD7979",
"Y 	c #FD8B8B",
"Z 	c #FE9999",
"` 	c #FD8D8E",
" .	c #FD7C7C",
"..	c #FC6B6B",
"+.	c #F35C5C",
"@.	c #B13B3D",
"#.	c #AC4D4E",
"$.	c #D25D5E",
"%.	c #FB7979",
"&.	c #FD9C9C",
"*.	c #FEA7A7",
"=.	c #FEA8A8",
"-.	c #FD9E9E",
";.	c #FD8E8E",
">.	c #FB7D7D",
",.	c #D26161",
"'.	c #AE5051",
").	c #B96061",
"!.	c #DC7E7F",
"~.	c #FA9696",
"{.	c #FDA4A4",
"].	c #FDADAD",
"^.	c #FDAEAE",
"/.	c #FDA6A6",
"(.	c #FA9898",
"_.	c #DD8282",
":.	c #BB6464",
"<.	c #BC7071",
"[.	c #D38F8F",
"}.	c #E59F9F",
"|.	c #EEA8A8",
"1.	c #E5A0A0",
"2.	c #D49192",
"3.	c #BE7274",
"4.	c #B6797E",
"5.	c #C8898B",
"6.	c #C88A8B",
"7.	c #B7797E",
". . . . + + + + + + + + + + + + + . . . . ",
"@ @ @ @ @ @ @ @ @ @ @ @ @ @ @ @ @ @ @ @ @ ",
"@ @ @ @ @ @ @ @ @ @ @ @ @ @ @ @ @ @ @ @ @ ",
"@ @ @ @ @ @ @ @ @ @ @ @ @ @ @ @ @ @ @ @ @ ",
"@ @ @ @ @ @ @ @ # $ $ % @ @ @ @ @ @ @ @ @ ",
"@ @ @ @ @ @ & * = - ; > , & @ @ @ @ @ @ @ ",
"@ @ @ @ @ ' ) ! ~ { ] ^ / ( ' @ @ @ @ @ @ ",
"@ @ @ @ _ : < [ } | 1 2 3 4 : _ @ @ @ @ @ ",
"@ @ @ @ 5 6 7 8 9 0 a b c 7 6 5 @ @ @ @ @ ",
"@ @ @ @ d e f g h i i h g j e d @ @ @ @ @ ",
"@ @ @ @ k l m n o p q r s t u v @ @ @ @ @ ",
"@ @ @ @ w x y z A B C D E F G H @ @ @ @ @ ",
"@ @ @ @ I J K L M N O P Q R S T @ @ @ @ @ ",
"@ @ @ @ U V W X Y Z Z `  ...+.@.@ @ @ @ @ ",
"@ @ @ @ #.$.%.Y &.*.=.-.;.>.,.'.@ @ @ @ @ ",
"@ @ @ @ @ ).!.~.{.].^./.(._.:.@ @ @ @ @ @ ",
"@ @ @ @ @ @ <.[.}.|.|.1.2.3.@ @ @ @ @ @ @ ",
"@ @ @ @ @ @ @ @ 4.5.6.7.@ @ @ @ @ @ @ @ @ ",
"@ @ @ @ @ @ @ @ @ @ @ @ @ @ @ @ @ @ @ @ @ ",
"@ @ @ @ @ @ @ @ @ @ @ @ @ @ @ @ @ @ @ @ @ ",
"@ @ @ @ @ @ @ @ @ @ @ @ @ @ @ @ @ @ @ @ @ "};
