/* XPM */
static char * title_2_active_xpm[] = {
"3 21 3 1",
" 	c None",
".	c #ECECEC",
"+	c #B00A0A",
"...",
"+++",
"+++",
"+++",
"+++",
"+++",
"+++",
"+++",
"+++",
"+++",
"+++",
"+++",
"+++",
"+++",
"+++",
"+++",
"+++",
"+++",
"+++",
"+++",
"+++"};
