/* XPM */
static char * title_1_active_xpm[] = {
"3 21 17 1",
" 	c None",
".	c #ECECEC",
"+	c #C4C4C4",
"@	c #C3C3C3",
"#	c #C2C2C2",
"$	c #C1C1C1",
"%	c #C0C0C0",
"&	c #BFBFBF",
"*	c #BEBEBE",
"=	c #BDBDBD",
"-	c #BCBCBC",
";	c #BBBBBB",
">	c #BABABA",
",	c #B9B9B9",
"'	c #B8B8B8",
")	c #B7B7B7",
"!	c #B5B5B5",
"...",
"+++",
"@@@",
"@@@",
"###",
"###",
"$$$",
"$$$",
"%%%",
"&&&",
"***",
"***",
"===",
"---",
";;;",
">>>",
",,,",
"'''",
")))",
")))",
"!!!"};
