/* XPM */
static char * top_right_active_xpm[] = {
"6 21 14 1",
" 	c None",
".	c #D8D8D8",
"+	c #E5E5E4",
"@	c #B73E3E",
"#	c #C58E8D",
"$	c #D5D5D4",
"%	c #DBDBDA",
"&	c #B00A0A",
"*	c #AE3435",
"=	c #A0A0A2",
"-	c #9A9A9A",
";	c #909090",
">	c #8C8C8C",
",	c #8D8D8D",
".+    ",
"@#$%  ",
"&&&&& ",
"&&&&& ",
"&&&&&*",
"&&&&&=",
"&&&&&-",
"&&&&&;",
"&&&&&>",
"&&&&&,",
"&&&&&,",
"&&&&&,",
"&&&&&,",
"&&&&&,",
"&&&&&,",
"&&&&&,",
"&&&&&,",
"&&&&&,",
"&&&&&,",
"&&&&&,",
"&&&&&,"};
