/* XPM */
static char * top_right_inactive_xpm[] = {
"6 21 29 1",
" 	c None",
".	c #D8D8D8",
"+	c #E5E5E4",
"@	c #CDCDCD",
"#	c #D0D0CF",
"$	c #D5D5D4",
"%	c #DBDBDA",
"&	c #C4C4C3",
"*	c #C9C9C8",
"=	c #CACAC9",
"-	c #C4C4C4",
";	c #C5C5C5",
">	c #C5C5C4",
",	c #C2C2C2",
"'	c #ABABAC",
")	c #C1C1C1",
"!	c #A0A0A2",
"~	c #9A9A9A",
"{	c #C0C0C0",
"]	c #909090",
"^	c #8C8C8C",
"/	c #BEBEBE",
"(	c #8D8D8D",
"_	c #BCBCBC",
":	c #BABABA",
"<	c #B8B8B8",
"[	c #B7B7B7",
"}	c #B6B6B6",
"|	c #B5B5B5",
".+    ",
"@#$%  ",
"&&&*= ",
"---;> ",
"----,'",
")))),!",
")))))~",
"{{{{{]",
"{{{{{^",
"/////(",
"/////(",
"/////(",
"_____(",
"_____(",
":::::(",
":::::(",
"<<<<<(",
"<<<<<(",
"[[[[[(",
"}}}}}(",
"|||||("};
