/* XPM */
static char * top_left_active_xpm[] = {
"6 21 2 1",
" 	c None",
".	c #B00A0A",
"      ",
"     .",
" .....",
" .....",
"......",
"......",
"......",
"......",
"......",
"......",
"......",
"......",
"......",
"......",
"......",
"......",
"......",
"......",
"......",
"......",
"......"};
